<svg width="139" height="17" viewBox="0 0 139 17" fill="none" xmlns="http://www.w3.org/2000/svg">
<path d="M32.1897 6.1665H20.5368L20.1193 6.49518V16.6651H23.3251V12.8369L23.619 12.5514H32.1897C34.3571 12.5514 35.3543 11.9775 35.3543 10.5066V8.16817C35.3543 6.73764 34.3571 6.1665 32.1897 6.1665ZM32.1897 9.92468C32.1897 10.6197 31.731 10.7329 30.6898 10.7329H23.6739L23.3388 10.4473V8.29209L23.6327 8.00653H30.7118C31.7117 8.00653 32.2117 8.12776 32.2117 8.81474V9.9166L32.1897 9.92468Z" fill="white"/>
<path d="M41.2769 8.08749L44.0679 12.0908L43.9003 12.4599H37.736L36.1537 14.378H45.3178L45.9826 14.7471L47.4 16.6653H51.1058L42.9856 6.04541" fill="white"/>
<path d="M78.0543 14.6232V11.7649L78.3894 11.4793H84.595V9.68237H74.7661V16.6653H89.2595V14.8684H78.4307" fill="white"/>
<path d="M89.3858 6.16943H74.7661V8.13069H89.3858V6.16943Z" fill="white"/>
<path d="M58.4816 8.04695H70.2691C70.1015 6.57601 69.1428 6.16113 66.8106 6.16113H58.3552C55.6906 6.16113 54.8555 6.65145 54.8555 8.65311V14.2136C54.8555 16.1748 55.6796 16.7056 58.3552 16.7056H66.8023C69.1758 16.7056 70.0988 16.2557 70.1757 14.7443H58.4733L58.1382 14.4183V8.29211" fill="white"/>
<path d="M12.2051 10.2508H3.66729L3.41731 9.96522V8.1683L3.66729 7.96355H15.2048L15.3697 7.59716C14.9961 6.61653 13.9549 6.12622 12.0732 6.12622H4.04089C1.37626 6.12622 0.543913 6.61653 0.543913 8.6182V9.80357C0.543913 11.7621 1.36802 12.2956 4.04089 12.2956H12.5814L12.8314 12.5407V14.4265L12.6226 14.7121H0.293932C0.293932 14.7121 0 14.8764 0 14.9168C0.208775 16.307 1.16749 16.6734 3.45852 16.6734H12.2051C14.8697 16.6734 15.746 16.183 15.746 14.1814V12.7428C15.746 10.7842 14.8697 10.2508 12.2051 10.2508Z" fill="white"/>
<path d="M98.591 6.12622H93.759L93.509 6.61653L98.841 10.4555C99.8409 9.88439 100.964 9.31326 102.137 8.73943" fill="white"/>
<path d="M102.923 13.3165L107.629 16.6652H112.461L112.67 16.2153L105.673 11.1909C104.755 11.886 103.797 12.581 102.926 13.3165" fill="white"/>
<path d="M97.8824 16.6653H93.5091L93.1355 16.0941C96.0913 13.2735 109.343 1.27697 138.118 0C138.118 0 114.002 0.808209 97.8824 16.6653Z" fill="#B2B0B2"/>
</svg>
